<?xml version="1.0" standalone="no"?>
<!DOCTYPE svg PUBLIC "-//W3C//DTD SVG 20010904//EN"
 "http://www.w3.org/TR/2001/REC-SVG-20010904/DTD/svg10.dtd">
<svg version="1.0" xmlns="http://www.w3.org/2000/svg"
 width="1024.000000pt" height="1024.000000pt" viewBox="0 0 1024.000000 1024.000000"
 preserveAspectRatio="xMidYMid meet">

<g transform="translate(0.000000,1024.000000) scale(0.100000,-0.100000)"
fill="#000000" stroke="none">
<path d="M5085 8410 c-17 -8 -88 -28 -290 -84 -27 -8 -79 -22 -115 -32 -36 -9
-90 -24 -120 -34 -83 -26 -349 -99 -445 -122 -22 -5 -44 -13 -50 -19 -5 -5
-18 -9 -28 -9 -17 0 -97 -21 -207 -54 -25 -8 -79 -24 -120 -36 -41 -12 -88
-26 -105 -32 -16 -5 -43 -13 -60 -18 -73 -19 -146 -40 -230 -65 -112 -34 -356
-103 -410 -117 -22 -5 -49 -14 -60 -19 -11 -5 -54 -18 -95 -29 -127 -34 -322
-88 -380 -105 -30 -9 -93 -27 -140 -39 -47 -13 -101 -28 -120 -34 -19 -7 -93
-28 -165 -48 -71 -20 -139 -40 -150 -44 -11 -4 -49 -16 -85 -25 -36 -10 -85
-24 -110 -31 -25 -8 -92 -27 -150 -43 -58 -16 -134 -38 -170 -49 -36 -10 -92
-27 -125 -36 -244 -66 -306 -83 -430 -121 -123 -38 -307 -90 -460 -131 -112
-31 -159 -79 -176 -184 -28 -176 40 -276 211 -309 25 -5 86 -21 135 -35 50
-14 115 -33 145 -42 30 -9 91 -26 135 -39 44 -13 145 -43 225 -65 80 -23 159
-45 175 -50 74 -24 241 -71 355 -101 69 -18 129 -36 135 -41 5 -4 16 -8 25 -8
9 0 55 -12 101 -26 46 -15 108 -33 139 -40 30 -7 89 -22 130 -34 135 -39 254
-71 320 -87 36 -8 72 -17 80 -20 35 -14 171 -55 275 -83 128 -33 289 -78 365
-100 41 -13 100 -28 130 -35 30 -7 125 -33 210 -58 85 -25 200 -57 255 -72
109 -29 167 -46 248 -70 28 -9 75 -22 102 -29 146 -40 255 -71 495 -141 146
-42 289 -83 318 -91 28 -8 78 -21 110 -30 31 -9 82 -23 112 -31 30 -8 65 -19
76 -25 17 -8 38 -6 85 7 35 9 80 20 99 25 19 4 58 15 85 23 28 8 91 26 140 40
50 14 110 32 135 40 25 9 70 22 100 31 30 8 105 29 165 46 161 47 316 90 345
97 14 3 99 28 190 55 91 28 183 54 206 58 22 5 51 13 65 18 38 16 319 98 384
113 22 5 49 14 60 19 11 5 38 14 60 19 67 15 157 41 167 47 5 4 33 12 61 19
69 17 232 63 282 80 40 13 75 23 235 69 47 14 114 34 150 45 88 27 146 36 154
22 8 -13 8 -1244 0 -1266 -3 -8 -30 -28 -60 -45 -29 -17 -71 -51 -93 -76 -38
-44 -81 -121 -81 -147 0 -7 -4 -17 -10 -23 -5 -5 -14 -50 -20 -100 -9 -80 -7
-99 11 -165 34 -123 89 -205 188 -281 l35 -26 -17 -99 c-9 -54 -21 -127 -27
-163 -5 -36 -16 -103 -25 -150 -18 -96 -31 -183 -74 -485 -17 -115 -35 -237
-41 -270 -50 -282 -50 -286 -38 -333 16 -69 41 -113 85 -152 176 -158 445
-197 703 -102 152 55 240 159 240 285 0 71 -18 239 -31 289 -5 20 -14 67 -19
105 -11 82 -54 371 -74 503 -8 52 -20 129 -26 170 -20 133 -41 264 -51 307
-14 65 -11 108 9 126 10 10 23 17 30 17 16 0 97 99 125 155 55 109 69 216 47
336 -21 112 -96 220 -196 284 l-54 35 0 694 c0 391 4 705 9 719 7 18 22 26 68
37 32 7 96 24 143 38 47 13 99 28 115 32 17 4 66 18 110 30 44 12 89 25 100
27 11 3 58 17 105 30 47 14 108 31 135 38 28 8 82 23 120 34 39 12 90 26 115
32 25 6 61 17 80 24 19 7 70 23 113 36 97 30 160 83 170 145 15 87 8 157 -21
213 -34 68 -51 78 -212 126 -25 7 -92 27 -150 45 -58 17 -145 42 -195 55 -102
26 -186 50 -331 94 -55 16 -118 34 -140 39 -39 10 -175 48 -269 76 -27 9 -77
23 -110 32 -98 27 -228 65 -255 75 -14 5 -47 15 -75 23 -48 13 -142 40 -320
90 -44 13 -123 35 -175 49 -99 27 -243 68 -320 92 -25 7 -70 21 -100 30 -30 9
-68 20 -85 25 -16 4 -70 20 -120 33 -49 14 -112 32 -140 41 -163 50 -280 83
-433 125 -40 11 -77 23 -83 27 -6 3 -36 13 -67 20 -72 19 -142 38 -212 59 -30
9 -102 29 -160 45 -276 75 -410 113 -460 131 -28 10 -186 55 -353 100 -60 16
-113 32 -119 35 -16 10 -121 33 -148 33 -14 0 -34 -4 -45 -9z"/>
<path d="M7670 5363 c-25 -8 -70 -21 -100 -28 -30 -7 -80 -21 -110 -30 -30 -9
-82 -25 -115 -34 -33 -10 -67 -20 -75 -24 -8 -3 -98 -29 -200 -57 -102 -29
-264 -74 -360 -102 -96 -27 -204 -58 -240 -68 -91 -24 -212 -58 -295 -82 -38
-10 -117 -32 -175 -48 -58 -16 -130 -36 -160 -45 -30 -9 -89 -25 -130 -36 -41
-10 -86 -23 -100 -28 -14 -5 -72 -21 -130 -36 -58 -15 -114 -31 -125 -35 -11
-5 -63 -20 -116 -33 -115 -29 -129 -27 -419 58 -76 23 -151 43 -250 70 -52 14
-126 35 -165 47 -38 12 -86 25 -105 29 -80 18 -126 30 -145 39 -18 8 -41 15
-190 55 -27 7 -72 20 -100 28 -47 13 -219 61 -330 92 -114 32 -204 57 -265 76
-36 10 -71 19 -78 19 -7 0 -20 4 -30 9 -9 6 -42 17 -72 25 -30 8 -107 29 -170
47 -63 17 -144 39 -180 49 -36 9 -75 22 -86 28 -11 6 -38 12 -60 14 l-39 3 -3
-927 c-2 -897 -1 -929 17 -970 11 -24 22 -53 26 -65 25 -87 194 -268 326 -348
67 -41 195 -107 249 -130 36 -15 72 -31 80 -36 8 -5 22 -12 30 -15 8 -3 47
-19 86 -34 112 -45 292 -100 472 -144 158 -39 192 -46 213 -46 12 0 50 -6 83
-14 322 -75 1149 -97 1686 -46 209 20 524 78 700 129 183 52 311 92 360 111
30 12 69 26 87 31 18 5 35 14 38 19 4 6 14 10 23 10 18 0 189 84 277 135 88
51 198 136 265 205 66 67 105 131 143 230 21 54 21 70 25 964 2 500 1 920 -3
933 -6 26 -5 26 -65 6z"/>
</g>
</svg>
